# xmcd
#
# Track frame offsets:
#	150
#	8625
#	21910
#	35277
#	50422
#	62327
#	74480
#	90605
#	104132
#	117047
#
# Disc length: 1733 seconds
#
# Revision: 0
# Processed by: cddbd v1.5.2PL0 Copyright (c) Steve Scherf et al.
# Submitted via: EasyCDDAExtractor 8.2.3.1
#
DISCID=7c06c30a
DTITLE=George Allison - It Ain't Easy Bein' Me
DYEAR=1900
DGENRE=Country
TTITLE0=Six Pack Away
TTITLE1=I'll Close My Eyes
TTITLE2=She'd Make A Bulldog Break His Chain
TTITLE3=Oklahoma Sunshine
TTITLE4=Fifty Year Old Woman
TTITLE5=Burnin' The Honky Tonks Down
TTITLE6=It Ain't Easy Bein' Me
TTITLE7=She Stands Me Up
TTITLE8=Love Is A Four Letter Word
TTITLE9=It Ain't Home
EXTD=
EXTT0=
EXTT1=
EXTT2=
EXTT3=
EXTT4=
EXTT5=
EXTT6=
EXTT7=
EXTT8=
EXTT9=Playback PCD 4510  ©
PLAYORDER=
